<svg xmlns="http://www.w3.org/2000/svg" viewBox="0 17.149999618530273 90.5999984741211 35.69999694824219" data-asc="1.05" width="90.5999984741211" height="35.69999694824219"><defs/><g fill="#000000"><g transform="translate(0, 0)"><path d="M18.65 52.50L3.50 36.35L3.50 52.50L0 52.50L0 17.55L3.50 17.55L3.50 33.90L18.65 17.55L23.10 17.55L6.75 35L23.25 52.50L18.65 52.50ZM44.10 52.85Q39.25 52.85 35.30 50.58Q31.35 48.30 29.08 44.23Q26.80 40.15 26.80 35Q26.80 29.85 29.08 25.77Q31.35 21.70 35.30 19.42Q39.25 17.15 44.10 17.15Q49 17.15 52.95 19.42Q56.90 21.70 59.15 25.77Q61.40 29.85 61.40 35Q61.40 40.15 59.15 44.23Q56.90 48.30 52.95 50.58Q49 52.85 44.10 52.85M44.10 49.80Q48 49.80 51.10 48Q54.20 46.20 56 42.83Q57.80 39.45 57.80 35Q57.80 30.55 56 27.20Q54.20 23.85 51.10 22.05Q48 20.25 44.10 20.25Q40.20 20.25 37.10 22.05Q34 23.85 32.20 27.20Q30.40 30.55 30.40 35Q30.40 39.45 32.20 42.83Q34 46.20 37.10 48Q40.20 49.80 44.10 49.80ZM86.40 52.50L77.75 37.90L71.30 37.90L71.30 52.50L67.80 52.50L67.80 17.55L78.30 17.55Q84.15 17.55 87.18 20.35Q90.20 23.15 90.20 27.70Q90.20 31.50 88.03 34.17Q85.85 36.85 81.60 37.65L90.60 52.50L86.40 52.50M71.30 35.05L78.35 35.05Q82.45 35.05 84.53 33.05Q86.60 31.05 86.60 27.70Q86.60 24.25 84.60 22.38Q82.60 20.50 78.30 20.50L71.30 20.50L71.30 35.05Z"/></g></g></svg>